<mxfile host="app.diagrams.net" agent="Mozilla/5.0 (Macintosh; Intel Mac OS X 10_15_7) AppleWebKit/537.36 (KHTML, like Gecko) Chrome/132.0.0.0 Safari/537.36" version="26.0.16">
  <diagram name="Page-1" id="74e2e168-ea6b-b213-b513-2b3c1d86103e">
    <mxGraphModel dx="1509" dy="734" grid="1" gridSize="10" guides="1" tooltips="1" connect="1" arrows="1" fold="1" page="1" pageScale="1" pageWidth="1100" pageHeight="850" background="none" math="0" shadow="0">
      <root>
        <mxCell id="0" />
        <mxCell id="1" parent="0" />
        <mxCell id="4lDjWUcHd0E4nZpBsMBI-4" value="点击" style="edgeStyle=orthogonalEdgeStyle;rounded=0;orthogonalLoop=1;jettySize=auto;html=1;" edge="1" parent="1" source="4lDjWUcHd0E4nZpBsMBI-2" target="4lDjWUcHd0E4nZpBsMBI-3">
          <mxGeometry relative="1" as="geometry" />
        </mxCell>
        <mxCell id="4lDjWUcHd0E4nZpBsMBI-2" value="播放引擎" style="rounded=1;whiteSpace=wrap;html=1;" vertex="1" parent="1">
          <mxGeometry x="680" y="225" width="120" height="60" as="geometry" />
        </mxCell>
        <mxCell id="4lDjWUcHd0E4nZpBsMBI-6" value="" style="edgeStyle=orthogonalEdgeStyle;rounded=0;orthogonalLoop=1;jettySize=auto;html=1;" edge="1" parent="1" source="4lDjWUcHd0E4nZpBsMBI-3" target="4lDjWUcHd0E4nZpBsMBI-5">
          <mxGeometry relative="1" as="geometry" />
        </mxCell>
        <mxCell id="4lDjWUcHd0E4nZpBsMBI-15" value="活跃账务列表&lt;br&gt;(日活跃3W)" style="edgeLabel;html=1;align=center;verticalAlign=middle;resizable=0;points=[];" vertex="1" connectable="0" parent="4lDjWUcHd0E4nZpBsMBI-6">
          <mxGeometry x="-0.05" relative="1" as="geometry">
            <mxPoint as="offset" />
          </mxGeometry>
        </mxCell>
        <mxCell id="4lDjWUcHd0E4nZpBsMBI-3" value="伏羲" style="rounded=1;whiteSpace=wrap;html=1;" vertex="1" parent="1">
          <mxGeometry x="880" y="225" width="120" height="60" as="geometry" />
        </mxCell>
        <mxCell id="4lDjWUcHd0E4nZpBsMBI-14" value="" style="edgeStyle=orthogonalEdgeStyle;rounded=0;orthogonalLoop=1;jettySize=auto;html=1;" edge="1" parent="1" source="4lDjWUcHd0E4nZpBsMBI-5" target="4lDjWUcHd0E4nZpBsMBI-13">
          <mxGeometry relative="1" as="geometry" />
        </mxCell>
        <mxCell id="4lDjWUcHd0E4nZpBsMBI-5" value="广告策略" style="whiteSpace=wrap;html=1;rounded=1;" vertex="1" parent="1">
          <mxGeometry x="1111" y="225" width="120" height="60" as="geometry" />
        </mxCell>
        <mxCell id="4lDjWUcHd0E4nZpBsMBI-10" style="edgeStyle=orthogonalEdgeStyle;rounded=0;orthogonalLoop=1;jettySize=auto;html=1;exitX=1;exitY=0.5;exitDx=0;exitDy=0;entryX=0;entryY=0.5;entryDx=0;entryDy=0;" edge="1" parent="1" source="4lDjWUcHd0E4nZpBsMBI-7" target="4lDjWUcHd0E4nZpBsMBI-3">
          <mxGeometry relative="1" as="geometry" />
        </mxCell>
        <mxCell id="4lDjWUcHd0E4nZpBsMBI-18" value="曝光" style="edgeLabel;html=1;align=center;verticalAlign=middle;resizable=0;points=[];" vertex="1" connectable="0" parent="4lDjWUcHd0E4nZpBsMBI-10">
          <mxGeometry x="-0.1889" y="-1" relative="1" as="geometry">
            <mxPoint as="offset" />
          </mxGeometry>
        </mxCell>
        <mxCell id="4lDjWUcHd0E4nZpBsMBI-7" value="联盟" style="rounded=1;whiteSpace=wrap;html=1;" vertex="1" parent="1">
          <mxGeometry x="680" y="125" width="120" height="60" as="geometry" />
        </mxCell>
        <mxCell id="4lDjWUcHd0E4nZpBsMBI-9" style="edgeStyle=orthogonalEdgeStyle;rounded=0;orthogonalLoop=1;jettySize=auto;html=1;exitX=1;exitY=0.5;exitDx=0;exitDy=0;entryX=0;entryY=0.5;entryDx=0;entryDy=0;" edge="1" parent="1" source="4lDjWUcHd0E4nZpBsMBI-8" target="4lDjWUcHd0E4nZpBsMBI-3">
          <mxGeometry relative="1" as="geometry" />
        </mxCell>
        <mxCell id="4lDjWUcHd0E4nZpBsMBI-19" value="下载" style="edgeLabel;html=1;align=center;verticalAlign=middle;resizable=0;points=[];" vertex="1" connectable="0" parent="4lDjWUcHd0E4nZpBsMBI-9">
          <mxGeometry x="-0.2667" y="3" relative="1" as="geometry">
            <mxPoint as="offset" />
          </mxGeometry>
        </mxCell>
        <mxCell id="4lDjWUcHd0E4nZpBsMBI-8" value="软件商店" style="rounded=1;whiteSpace=wrap;html=1;" vertex="1" parent="1">
          <mxGeometry x="680" y="325" width="120" height="60" as="geometry" />
        </mxCell>
        <mxCell id="4lDjWUcHd0E4nZpBsMBI-16" style="edgeStyle=orthogonalEdgeStyle;rounded=0;orthogonalLoop=1;jettySize=auto;html=1;exitX=0;exitY=0.5;exitDx=0;exitDy=0;entryX=1;entryY=0.5;entryDx=0;entryDy=0;" edge="1" parent="1" source="4lDjWUcHd0E4nZpBsMBI-11" target="4lDjWUcHd0E4nZpBsMBI-5">
          <mxGeometry relative="1" as="geometry" />
        </mxCell>
        <mxCell id="4lDjWUcHd0E4nZpBsMBI-17" value="每20秒查询账务余额和限额" style="edgeLabel;html=1;align=center;verticalAlign=middle;resizable=0;points=[];" vertex="1" connectable="0" parent="4lDjWUcHd0E4nZpBsMBI-16">
          <mxGeometry x="0.2" relative="1" as="geometry">
            <mxPoint x="18" as="offset" />
          </mxGeometry>
        </mxCell>
        <mxCell id="4lDjWUcHd0E4nZpBsMBI-11" value="账务系统" style="rounded=1;whiteSpace=wrap;html=1;" vertex="1" parent="1">
          <mxGeometry x="1408" y="225" width="120" height="60" as="geometry" />
        </mxCell>
        <mxCell id="4lDjWUcHd0E4nZpBsMBI-13" value="广告召回" style="whiteSpace=wrap;html=1;rounded=1;" vertex="1" parent="1">
          <mxGeometry x="1111" y="365" width="120" height="60" as="geometry" />
        </mxCell>
      </root>
    </mxGraphModel>
  </diagram>
</mxfile>
